<svg xmlns="http://www.w3.org/2000/svg" xmlns:xlink="http://www.w3.org/1999/xlink" width="576.796" height="458.377" viewBox="0 0 576.796 458.377">
  <defs>
    <radialGradient id="radial-gradient" cx="0.191" cy="0.545" r="0.937" gradientTransform="matrix(1, 0.008, -0.008, 1, 0.006, -0.002)" gradientUnits="objectBoundingBox">
      <stop offset="0" stop-color="#c11499"/>
      <stop offset="0.532" stop-color="#e51f6b"/>
      <stop offset="1" stop-color="#ef1d1d"/>
    </radialGradient>
    <radialGradient id="radial-gradient-2" cx="0.957" cy="0.5" r="0.856" gradientTransform="translate(0 0)" gradientUnits="objectBoundingBox">
      <stop offset="0" stop-color="#fff"/>
      <stop offset="1" stop-color="#909090"/>
    </radialGradient>
  </defs>
  <g id="Group_18" data-name="Group 18" transform="translate(-208.75 -399.484)">
    <path id="Path_38" data-name="Path 38" d="M-51.07-231.42A31.217,31.217,0,0,0-82.593-199.9V105.243A31.217,31.217,0,0,0-51.07,136.766a31.217,31.217,0,0,0,31.523-31.523V-8.239H98.978c62.415,0,108.438-46.023,108.438-108.438,0-65.567-46.023-114.743-108.438-114.743ZM144.371-116.677c0,27.11-17.653,45.393-45.393,45.393H-19.547v-97.09H98.978C126.718-168.374,144.371-147.569,144.371-116.677Z" transform="translate(578.129 630.904)" fill="url(#radial-gradient)"/>
    <path id="Path_39" data-name="Path 39" d="M194.673,135.8a31.276,31.276,0,0,0,20.805-29.631V-201.493a31.217,31.217,0,0,0-31.523-31.523,31.217,31.217,0,0,0-31.523,31.523V19.166L-44.27-221.668a31.26,31.26,0,0,0-34.675-9.457A31.276,31.276,0,0,0-99.75-201.493V106.169a31.217,31.217,0,0,0,31.523,31.523A31.217,31.217,0,0,0-36.7,106.169V-114.49L160,126.344a30.145,30.145,0,0,0,23.957,11.348A32.022,32.022,0,0,0,194.673,135.8Z" transform="translate(308.5 632.5)" fill="url(#radial-gradient-2)"/>
    <path id="Path_40" data-name="Path 40" d="M-209.779,16.808h15.223l3.721-10.318h23.512l3.721,10.318h14.97l-22.666-59.2h-15.562ZM-187.705-4l8.711-23.6L-170.452-4Zm67.49,21.82c15.646,0,25.372-9.049,25.372-24.357V-42.394h-14.547V-7.718c0,8.035-3.806,12.263-10.826,12.263-7.1,0-10.825-4.229-10.825-12.263V-42.394h-14.547V-6.534C-145.587,8.774-135.946,17.823-120.215,17.823Zm49.983-1.015h14.547V-29.031h17.253V-42.394H-87.4v13.363h17.169Zm64.615,1.1c18.353,0,31.546-12.94,31.546-30.7s-13.194-30.7-31.546-30.7c-18.183,0-31.546,12.94-31.546,30.7S-23.8,17.908-5.617,17.908Zm-16.661-30.7c0-10.233,6.935-17.422,16.661-17.422,9.811,0,16.746,7.189,16.746,17.422S4.194,4.63-5.617,4.63C-15.343,4.63-22.278-2.559-22.278-12.793ZM63.227-.529h6.512l13.7-19.114V16.808H97.9v-59.2H84.962L66.44-17.275,48-42.394H35.148v59.2H49.525V-19.643Zm41.78,17.338H120.23L123.951,6.49h23.512l3.721,10.318h14.97l-22.666-59.2H127.926ZM127.08-4l8.711-23.6L144.333-4Zm52.1,20.805h14.547V-29.031h17.253V-42.394H162.009v13.363h17.169Zm39.75,0h14.547v-59.2H218.928Zm55.227,1.1c18.353,0,31.546-12.94,31.546-30.7s-13.194-30.7-31.546-30.7c-18.183,0-31.546,12.94-31.546,30.7S255.971,17.908,274.155,17.908Zm-16.661-30.7c0-10.233,6.935-17.422,16.661-17.422,9.811,0,16.746,7.189,16.746,17.422S283.965,4.63,274.155,4.63C264.429,4.63,257.493-2.559,257.493-12.793Zm57.426,29.6h13.955V-18.121l26.3,34.929h11.84v-59.2H353.062V-7.38L326.675-42.394H314.919Z" transform="translate(418.529 839.953)" fill="#ea1e47"/>
  </g>
</svg>
